ffmpeg version 2021-01-09-git-2e2891383e-essentials_build-www.gyan.dev Copyright (c) 2000-2021 the FFmpeg developers
built with gcc 10.2.0 (Rev6, Built by MSYS2 project)
configuration: --enable-gpl --enable-version3 --enable-static --disable-w32threads --disable-autodetect --enable-fontconfig --enable-iconv --enable-gnutls --enable-libxml2 --enable-gmp --enable-lzma --enable-zlib --enable-libsrt --enable-libssh --enable-libzmq --enable-avisynth --enable-sdl2 --enable-libwebp --enable-libx264 --enable-libx265 --enable-libxvid --enable-libaom --enable-libopenjpeg --enable-libvpx --enable-libass --enable-libfreetype --enable-libfribidi --enable-libvidstab --enable-libvmaf --enable-libzimg --enable-amf --enable-cuda-llvm --enable-cuvid --enable-ffnvcodec --enable-nvdec --enable-nvenc --enable-d3d11va --enable-dxva2 --enable-libmfx --enable-libgme --enable-libopenmpt --enable-libopencore-amrwb --enable-libmp3lame --enable-libtheora --enable-libvo-amrwbenc --enable-libgsm --enable-libopencore-amrnb --enable-libopus --enable-libspeex --enable-libvorbis --enable-librubberband
libavutil      56. 63.100 / 56. 63.100
libavcodec     58.115.102 / 58.115.102
libavformat    58. 65.101 / 58. 65.101
libavdevice    58. 11.103 / 58. 11.103
libavfilter     7. 95.100 /  7. 95.100
libswscale      5.  8.100 /  5.  8.100
libswresample   3.  8.100 /  3.  8.100
libpostproc    55.  8.100 / 55.  8.100
Input #0, dash, from 'https://v.redd.it/hf352syjjka61/DASHPlaylist.mpd':
Duration: 00:00:10.00, start: -0.021333, bitrate: 2 kb/s
Program 0 
  Stream #0:0: Video: h264 (Main) (avc1 / 0x31637661), yuv420p, 136x240 [SAR 135:136 DAR 9:16], 225 kb/s, 30 fps, 30 tbr, 3k tbn, 60 tbc (default)
  Metadata:
    variant_bitrate : 611140
    id              : video_611140
  Stream #0:1: Video: h264 (Main) (avc1 / 0x31637661), yuv420p, 202x360 [SAR 1:1 DAR 101:180], 299 kb/s, 30 fps, 30 tbr, 3k tbn, 60 tbc (default)
  Metadata:
    variant_bitrate : 810514
    id              : video_810514
  Stream #0:2: Video: h264 (Main) (avc1 / 0x31637661), yuv420p, 270x480 [SAR 1:1 DAR 9:16], 719 kb/s, 30 fps, 30 tbr, 3k tbn, 60 tbc (default)
  Metadata:
    variant_bitrate : 1211509
    id              : video_1211509
  Stream #0:3: Video: h264 (Main) (avc1 / 0x31637661), yuv420p, 406x720 [SAR 405:406 DAR 9:16], 1230 kb/s, 30 fps, 30 tbr, 3k tbn, 60 tbc (default)
  Metadata:
    variant_bitrate : 2411479
    id              : video_2411479
  Stream #0:4: Audio: aac (LC) (mp4a / 0x6134706D), 48000 Hz, stereo, fltp, 63 kb/s (default)
  Metadata:
    variant_bitrate : 132840
    id              : audio_0_132840
Output #0, mp4, to 'C:\\local\\Temp\\hf352syjjka61.mp4':
Metadata:
  encoder         : Lavf58.65.101
  Stream #0:0: Video: h264 (Main) (avc1 / 0x31637661), yuv420p, 406x720 [SAR 405:406 DAR 9:16], q=2-31, 1230 kb/s, 30 fps, 30 tbr, 12k tbn, 3k tbc (default)
  Metadata:
    variant_bitrate : 2411479
    id              : video_2411479
  Stream #0:1: Audio: aac (LC) (mp4a / 0x6134706D), 48000 Hz, stereo, fltp, 63 kb/s (default)
  Metadata:
    variant_bitrate : 132840
    id              : audio_0_132840
Stream mapping:
Stream #0:3 -> #0:0 (copy)
Stream #0:4 -> #0:1 (copy)
Press [q] to stop, [?] for help
frame=    0 fps=0.0 q=-1.0 size=       0kB time=00:00:00.00 bitrate=N/A speed=   0x    
[dash @ 0000029bfb9dfd00] No longer receiving stream_index 0
[dash @ 0000029bfb9dfd00] No longer receiving stream_index 1
[dash @ 0000029bfb9dfd00] No longer receiving stream_index 2
frame=  307 fps=0.0 q=-1.0 Lsize=    3188kB time=00:00:10.22 bitrate=2555.1kbits/s speed=83.1x    
video:3017kB audio:161kB subtitle:0kB other streams:0kB global headers:0kB muxing overhead: 0.314720%